<?xml version="1.0" encoding="utf-8"?>
<!-- Generator: Adobe Illustrator 19.0.0, SVG Export Plug-In . SVG Version: 6.00 Build 0)  -->
<svg version="1.1" id="Layer_1" xmlns="http://www.w3.org/2000/svg" xmlns:xlink="http://www.w3.org/1999/xlink" x="0px" y="0px"
	 viewBox="-691 381.5 177.9 91.5" style="enable-background:new -691 381.5 177.9 91.5;" xml:space="preserve">
<style type="text/css">
	.st0{fill:#FFFFFF;}
</style>
<g id="XMLID_180_">
	<g id="XMLID_182_">
		<path id="XMLID_922_" class="st0" d="M-643.2,410.4c0,16.3-11.3,28.9-27.9,28.9h-20v-57.8h20C-654.5,381.5-643.2,394-643.2,410.4z
			 M-654.8,410.4c0-10.5-6.6-18.5-16.7-18.5h-7.8v37h7.8C-661.5,428.9-654.8,420.9-654.8,410.4z"/>
		<path id="XMLID_188_" class="st0" d="M-633.5,439.2v-57.8h11.7v57.8H-633.5z"/>
		<path id="XMLID_185_" class="st0" d="M-566.2,391.9h-17.9v47.4h-11.7v-47.4h-17.9v-10.4h47.6L-566.2,391.9z"/>
		<path id="XMLID_183_" class="st0" d="M-513.2,391.9H-531v47.4h-11.7v-47.4h-17.9v-10.4h47.6L-513.2,391.9z"/>
	</g>
	<g id="XMLID_127_">
		<path id="XMLID_179_" class="st0" d="M-616.2,469.5c0,2.5-1.4,3.3-3.7,3.3h-5.3v-11.1c5.3,0,5.3,0,5.3,0c2,0,3.3,1,3.3,3
			c0,0.7-0.2,1.3-1.2,2C-617.2,467-616.2,467.8-616.2,469.5z M-620,463.8h-2.9v2.3h2.9c0.6,0,1.2-0.3,1.2-1.2
			S-619.3,463.8-620,463.8z M-618.3,469.5c0-1.1-0.7-1.4-1.4-1.4h-3.1v2.7h3.1C-619,470.9-618.3,470.5-618.3,469.5z"/>
		<path id="XMLID_960_" class="st0" d="M-606.3,470.5h-4.4l-0.9,2.4h-2.4l4.4-11.1h2.4l4.4,11.1h-2.5L-606.3,470.5z M-607,468.5
			l-1.4-3.7l-1.5,3.7H-607z"/>
		<path id="XMLID_2072_" class="st0" d="M-591.2,472.9h-2.2l-0.3-0.5c-0.5,0.4-1.1,0.7-2,0.7c-3.4,0-5.4-2.5-5.4-5.7
			c0-3.1,2.3-5.7,5.4-5.7c2,0,3.6,1,4.5,2.4l-2,1.1c-0.5-1-1.3-1.6-2.7-1.6c-2,0-3.1,1.7-3.1,3.7s1.1,3.7,3.1,3.7
			c1.2,0,2.4-0.5,2.4-2.4h-2.3v-2h4.5L-591.2,472.9L-591.2,472.9z"/>
		<path id="XMLID_2090_" class="st0" d="M-586.8,469.6c0.3,0.6,1.4,1.3,3.3,1.3c2,0,2.1-1,2.1-1.4c0-2.6-6.8,0.4-6.8-4.7
			c0-2,1.5-3.3,4.5-3.3c3.2,0,4.2,1.8,4.2,1.8l-1.9,1.1c-0.2-0.3-1-0.9-2.3-0.9c-0.8,0-2.2,0.1-2.2,1.3c0,2.6,6.8-0.4,6.8,4.7
			c0,1.2-0.7,3.4-4.3,3.4c-3,0-4.5-1.1-5.2-2.2L-586.8,469.6z"/>
	</g>
</g>
</svg>
