<?xml version="1.0" encoding="utf-8"?>
<!-- Generator: Adobe Illustrator 19.0.0, SVG Export Plug-In . SVG Version: 6.00 Build 0)  -->
<svg version="1.1" id="Layer_1" xmlns="http://www.w3.org/2000/svg" xmlns:xlink="http://www.w3.org/1999/xlink" x="0px" y="0px"
	 viewBox="0 0 177.9 91.5" style="enable-background:new 0 0 177.9 91.5;" xml:space="preserve">
<g id="XMLID_180_">
	<g id="XMLID_182_">
		<path id="XMLID_922_" d="M47.9,28.9c0,16.3-11.3,28.9-27.9,28.9l-20,0L0,0l20,0C36.6,0,47.9,12.6,47.9,28.9z M36.2,28.9
			c0-10.5-6.6-18.5-16.7-18.5l-7.8,0l0,37l7.8,0C29.6,47.4,36.2,39.4,36.2,28.9z"/>
		<path id="XMLID_188_" d="M57.6,57.8l0-57.8l11.7,0l0,57.8L57.6,57.8z"/>
		<path id="XMLID_185_" d="M124.8,10.4l-17.9,0l0,47.4l-11.7,0l0-47.4l-17.9,0l0-10.4l47.6,0L124.8,10.4z"/>
		<path id="XMLID_183_" d="M177.9,10.4l-17.9,0l0,47.4l-11.7,0l0-47.4l-17.9,0V0l47.6,0L177.9,10.4z"/>
	</g>
	<g id="XMLID_127_">
		<path id="XMLID_179_" d="M74.9,88.1c0,2.5-1.4,3.3-3.7,3.3h-5.3V80.3c5.3,0,5.3,0,5.3,0c2,0,3.3,1,3.3,3c0,0.7-0.2,1.3-1.2,2
			C73.8,85.6,74.9,86.3,74.9,88.1z M71.1,82.3h-2.9v2.3h2.9c0.6,0,1.2-0.3,1.2-1.2S71.7,82.3,71.1,82.3z M72.7,88
			c0-1.1-0.7-1.4-1.4-1.4h-3.1v2.7h3.1C72,89.4,72.7,89.1,72.7,88z"/>
		<path id="XMLID_960_" d="M84.7,89h-4.4l-0.9,2.4H77l4.4-11.1h2.4l4.4,11.1h-2.5L84.7,89z M84,87l-1.4-3.7L81.1,87H84z"/>
		<path id="XMLID_2072_" d="M99.8,91.4h-2.2l-0.3-0.5c-0.5,0.4-1.1,0.7-2,0.7c-3.4,0-5.4-2.5-5.4-5.7c0-3.1,2.3-5.7,5.4-5.7
			c2,0,3.6,1,4.5,2.4l-2,1.1c-0.5-1-1.3-1.6-2.7-1.6c-2,0-3.1,1.7-3.1,3.7s1.1,3.7,3.1,3.7c1.2,0,2.4-0.5,2.4-2.4h-2.3v-2h4.5V91.4z
			"/>
		<path id="XMLID_2090_" d="M104.3,88.2c0.3,0.6,1.4,1.3,3.3,1.3c2,0,2.1-1,2.1-1.4c0-2.6-6.8,0.4-6.8-4.7c0-2,1.5-3.3,4.5-3.3
			c3.2,0,4.2,1.8,4.2,1.8l-1.9,1.1c-0.2-0.3-1-0.9-2.3-0.9c-0.8,0-2.2,0.1-2.2,1.3c0,2.6,6.8-0.4,6.8,4.7c0,1.2-0.7,3.4-4.3,3.4
			c-3,0-4.5-1.1-5.2-2.2L104.3,88.2z"/>
	</g>
</g>
</svg>
