<?xml version="1.0" standalone="no"?>
<!DOCTYPE svg PUBLIC "-//W3C//DTD SVG 20010904//EN"
 "http://www.w3.org/TR/2001/REC-SVG-20010904/DTD/svg10.dtd">
<svg version="1.0" xmlns="http://www.w3.org/2000/svg"
 width="901.000000pt" height="901.000000pt" viewBox="0 0 901.000000 901.000000"
 preserveAspectRatio="xMidYMid meet">
<metadata>
Created by potrace 1.11, written by Peter Selinger 2001-2013
</metadata>
<g transform="translate(0.000000,901.000000) scale(0.100000,-0.100000)"
fill="#000000" stroke="none">
<path d="M800 4510 l0 -1210 468 0 c257 0 499 5 537 10 250 36 454 134 630
301 191 183 308 415 349 691 93 624 -230 1188 -780 1361 -158 50 -251 57 -748
57 l-456 0 0 -1210z m1030 732 c146 -48 281 -157 358 -288 136 -230 153 -565
41 -812 -66 -146 -170 -256 -304 -322 -127 -63 -173 -71 -417 -77 l-218 -6 0
767 0 768 238 -4 c210 -4 244 -7 302 -26z"/>
<path d="M3190 4510 l0 -1210 250 0 250 0 0 1210 0 1210 -250 0 -250 0 0
-1210z"/>
<path d="M4010 5495 l0 -225 375 0 375 0 0 -985 0 -985 250 0 250 0 0 985 0
985 370 0 370 0 0 225 0 225 -995 0 -995 0 0 -225z"/>
<path d="M6222 5498 l3 -223 373 -3 372 -2 0 -985 0 -985 250 0 250 0 0 985 0
985 373 2 372 3 3 223 2 222 -1000 0 -1000 0 2 -222z"/>
</g>
</svg>
